<svg width="631" height="180" viewBox="0 0 631 180" fill="none" xmlns="http://www.w3.org/2000/svg">
<rect y="72" width="60" height="60" rx="4" fill="#0000FF"/>
<path d="M139.64 116.04H106.28L100.76 132H83.12L113.24 48.12H132.8L162.92 132H145.16L139.64 116.04ZM135.08 102.6L122.96 67.56L110.84 102.6H135.08ZM190.978 75.12C193.138 72.08 196.098 69.56 199.858 67.56C203.698 65.48 208.058 64.44 212.938 64.44C218.618 64.44 223.738 65.84 228.298 68.64C232.938 71.44 236.578 75.44 239.218 80.64C241.938 85.76 243.298 91.72 243.298 98.52C243.298 105.32 241.938 111.36 239.218 116.64C236.578 121.84 232.938 125.88 228.298 128.76C223.738 131.64 218.618 133.08 212.938 133.08C208.058 133.08 203.738 132.08 199.978 130.08C196.298 128.08 193.298 125.56 190.978 122.52V163.68H174.178V65.52H190.978V75.12ZM226.138 98.52C226.138 94.52 225.298 91.08 223.618 88.2C222.018 85.24 219.858 83 217.138 81.48C214.498 79.96 211.618 79.2 208.498 79.2C205.458 79.2 202.578 80 199.858 81.6C197.218 83.12 195.058 85.36 193.378 88.32C191.778 91.28 190.978 94.76 190.978 98.76C190.978 102.76 191.778 106.24 193.378 109.2C195.058 112.16 197.218 114.44 199.858 116.04C202.578 117.56 205.458 118.32 208.498 118.32C211.618 118.32 214.498 117.52 217.138 115.92C219.858 114.32 222.018 112.04 223.618 109.08C225.298 106.12 226.138 102.6 226.138 98.52ZM272.307 75.12C274.467 72.08 277.427 69.56 281.187 67.56C285.027 65.48 289.387 64.44 294.267 64.44C299.947 64.44 305.067 65.84 309.627 68.64C314.267 71.44 317.907 75.44 320.547 80.64C323.267 85.76 324.627 91.72 324.627 98.52C324.627 105.32 323.267 111.36 320.547 116.64C317.907 121.84 314.267 125.88 309.627 128.76C305.067 131.64 299.947 133.08 294.267 133.08C289.387 133.08 285.067 132.08 281.307 130.08C277.627 128.08 274.627 125.56 272.307 122.52V163.68H255.507V65.52H272.307V75.12ZM307.467 98.52C307.467 94.52 306.627 91.08 304.947 88.2C303.347 85.24 301.187 83 298.467 81.48C295.827 79.96 292.947 79.2 289.827 79.2C286.787 79.2 283.907 80 281.187 81.6C278.547 83.12 276.387 85.36 274.707 88.32C273.107 91.28 272.307 94.76 272.307 98.76C272.307 102.76 273.107 106.24 274.707 109.2C276.387 112.16 278.547 114.44 281.187 116.04C283.907 117.56 286.787 118.32 289.827 118.32C292.947 118.32 295.827 117.52 298.467 115.92C301.187 114.32 303.347 112.04 304.947 109.08C306.627 106.12 307.467 102.6 307.467 98.52ZM353.635 75.24C355.795 72.04 358.755 69.44 362.515 67.44C366.355 65.44 370.715 64.44 375.595 64.44C381.275 64.44 386.395 65.84 390.955 68.64C395.595 71.44 399.235 75.44 401.875 80.64C404.595 85.76 405.955 91.72 405.955 98.52C405.955 105.32 404.595 111.36 401.875 116.64C399.235 121.84 395.595 125.88 390.955 128.76C386.395 131.64 381.275 133.08 375.595 133.08C370.635 133.08 366.275 132.12 362.515 130.2C358.835 128.2 355.875 125.64 353.635 122.52V132H336.835V43.2H353.635V75.24ZM388.795 98.52C388.795 94.52 387.955 91.08 386.275 88.2C384.675 85.24 382.515 83 379.795 81.48C377.155 79.96 374.275 79.2 371.155 79.2C368.115 79.2 365.235 80 362.515 81.6C359.875 83.12 357.715 85.36 356.035 88.32C354.435 91.28 353.635 94.76 353.635 98.76C353.635 102.76 354.435 106.24 356.035 109.2C357.715 112.16 359.875 114.44 362.515 116.04C365.235 117.56 368.115 118.32 371.155 118.32C374.275 118.32 377.155 117.52 379.795 115.92C382.515 114.32 384.675 112.04 386.275 109.08C387.955 106.12 388.795 102.6 388.795 98.52ZM413.843 98.52C413.843 91.8 415.163 85.84 417.803 80.64C420.523 75.44 424.163 71.44 428.723 68.64C433.363 65.84 438.523 64.44 444.203 64.44C449.163 64.44 453.483 65.44 457.163 67.44C460.923 69.44 463.923 71.96 466.163 75V65.52H483.083V132H466.163V122.28C464.003 125.4 461.003 128 457.163 130.08C453.403 132.08 449.043 133.08 444.083 133.08C438.483 133.08 433.363 131.64 428.723 128.76C424.163 125.88 420.523 121.84 417.803 116.64C415.163 111.36 413.843 105.32 413.843 98.52ZM466.163 98.76C466.163 94.68 465.363 91.2 463.763 88.32C462.163 85.36 460.003 83.12 457.283 81.6C454.563 80 451.643 79.2 448.523 79.2C445.403 79.2 442.523 79.96 439.883 81.48C437.243 83 435.083 85.24 433.403 88.2C431.803 91.08 431.003 94.52 431.003 98.52C431.003 102.52 431.803 106.04 433.403 109.08C435.083 112.04 437.243 114.32 439.883 115.92C442.603 117.52 445.483 118.32 448.523 118.32C451.643 118.32 454.563 117.56 457.283 116.04C460.003 114.44 462.163 112.2 463.763 109.32C465.363 106.36 466.163 102.84 466.163 98.76ZM524.931 133.08C519.491 133.08 514.611 132.12 510.291 130.2C505.971 128.2 502.531 125.52 499.971 122.16C497.491 118.8 496.131 115.08 495.891 111H512.811C513.131 113.56 514.371 115.68 516.531 117.36C518.771 119.04 521.531 119.88 524.811 119.88C528.011 119.88 530.491 119.24 532.251 117.96C534.091 116.68 535.011 115.04 535.011 113.04C535.011 110.88 533.891 109.28 531.651 108.24C529.491 107.12 526.011 105.92 521.211 104.64C516.251 103.44 512.171 102.2 508.971 100.92C505.851 99.64 503.131 97.68 500.811 95.04C498.571 92.4 497.451 88.84 497.451 84.36C497.451 80.68 498.491 77.32 500.571 74.28C502.731 71.24 505.771 68.84 509.691 67.08C513.691 65.32 518.371 64.44 523.731 64.44C531.651 64.44 537.971 66.44 542.691 70.44C547.411 74.36 550.011 79.68 550.491 86.4H534.411C534.171 83.76 533.051 81.68 531.051 80.16C529.131 78.56 526.531 77.76 523.251 77.76C520.211 77.76 517.851 78.32 516.171 79.44C514.571 80.56 513.771 82.12 513.771 84.12C513.771 86.36 514.891 88.08 517.131 89.28C519.371 90.4 522.851 91.56 527.571 92.76C532.371 93.96 536.331 95.2 539.451 96.48C542.571 97.76 545.251 99.76 547.491 102.48C549.811 105.12 551.011 108.64 551.091 113.04C551.091 116.88 550.011 120.32 547.851 123.36C545.771 126.4 542.731 128.8 538.731 130.56C534.811 132.24 530.211 133.08 524.931 133.08ZM626.682 97.32C626.682 99.72 626.522 101.88 626.202 103.8H577.602C578.002 108.6 579.682 112.36 582.642 115.08C585.602 117.8 589.242 119.16 593.562 119.16C599.802 119.16 604.242 116.48 606.882 111.12H625.002C623.082 117.52 619.402 122.8 613.962 126.96C608.522 131.04 601.842 133.08 593.922 133.08C587.522 133.08 581.762 131.68 576.642 128.88C571.602 126 567.642 121.96 564.762 116.76C561.962 111.56 560.562 105.56 560.562 98.76C560.562 91.88 561.962 85.84 564.762 80.64C567.562 75.44 571.482 71.44 576.522 68.64C581.562 65.84 587.362 64.44 593.922 64.44C600.242 64.44 605.882 65.8 610.842 68.52C615.882 71.24 619.762 75.12 622.482 80.16C625.282 85.12 626.682 90.84 626.682 97.32ZM609.282 92.52C609.202 88.2 607.642 84.76 604.602 82.2C601.562 79.56 597.842 78.24 593.442 78.24C589.282 78.24 585.762 79.52 582.882 82.08C580.082 84.56 578.362 88.04 577.722 92.52H609.282Z" fill="black"/>
</svg>
